<svg xmlns="http://www.w3.org/2000/svg" width="100" height="100" fill="none" viewBox="0 0 100 100">
  <title>Jefferson Umanzor</title>
  <style>
    @keyframes grow{0%{stroke-dashoffset:1px;stroke-dasharray:0 350px;opacity:0}10%{opacity:1;transform:translate(0,1%)}20%{transform:translate(0,0)}40%,85%{stroke-dasharray:350px 0}95%{stroke-dasharray:0 350px}}
    @media (prefers-reduced-motion){path{animation:none!important;stroke-dasharray:unset!important}}
    path{stroke-dashoffset:1px;stroke-dasharray:350px 0;animation:grow 10s ease forwards infinite;transform-origin:center;stroke:#303030;animation-delay:0s}
    @media (prefers-color-scheme:dark){path{stroke:#fdfdfd}}
  </style>
  <g transform="translate(0 7.9376) scale(0.3868412) translate(-606.203 -351.893)">
    <path
      stroke="#000"
      stroke-linecap="round"
      stroke-linejoin="round"
      stroke-width="5"
      d="M 694.30,355.54 C 693.58 356.40, 693.21 357.27, 692.82 359.94 C 692.44 362.61, 692.83 364.27, 692.38 368.88 C 691.94 373.49, 691.70 376.47, 690.60 382.99 C 689.50 389.51, 688.76 393.34, 686.90 401.46 C 685.04 409.58, 683.90 414.24, 681.30 423.60 C 678.69 432.95, 677.16 438.14, 673.88 448.25 C 670.60 458.35, 668.71 463.85, 664.91 474.12 C 661.11 484.39, 658.98 489.84, 654.90 499.59 C 650.81 509.34, 648.57 514.36, 644.47 522.87 C 640.37 531.38, 638.23 535.56, 634.40 542.14 C 630.58 548.71, 628.57 551.68, 625.34 555.73 C 622.12 559.79, 620.38 560.94, 618.29 562.41 C 616.21 563.89, 615.91 564.14, 614.91 563.11 C 613.90 562.08, 613.61 560.91, 613.28 557.27 C 612.94 553.62, 612.67 550.71, 613.22 544.89 C 613.78 539.07, 614.29 535.25, 616.03 528.17 C 617.78 521.08, 619.07 516.94, 621.95 509.45 C 624.82 501.96, 626.68 497.98, 630.42 490.72 C 634.16 483.45, 636.33 479.82, 640.65 473.14 C 644.96 466.45, 647.35 463.24, 651.99 457.28 C 656.63 451.33, 659.06 448.56, 663.83 443.34 C 668.60 438.13, 671.07 435.81, 675.85 431.20 C 680.63 426.59, 683.07 424.48, 687.73 420.29 C 692.38 416.11, 694.72 414.18, 699.13 410.29 C 703.55 406.39, 705.75 404.51, 709.79 400.81 C 713.83 397.10, 715.77 395.23, 719.34 391.77 C 722.92 388.31, 724.64 386.55, 727.67 383.51 C 730.70 380.47, 732.75 378.89, 734.51 376.56 C 736.26 374.23, 736.53 372.74, 736.45 371.86 C 736.38 370.98, 735.41 370.80, 734.13 372.16 C 732.85 373.52, 731.83 375.23, 730.05 378.66 C 728.27 382.08, 727.01 384.86, 725.23 389.30 C 723.45 393.75, 722.28 396.55, 721.13 400.86 C 719.98 405.17, 719.26 407.34, 719.49 410.86 C 719.71 414.39, 720.31 416.16, 722.26 418.47 C 724.20 420.78, 725.85 421.84, 729.23 422.42 C 732.60 423.00, 734.75 422.57, 739.14 421.37 C 743.52 420.18, 746.01 419.05, 751.14 416.44 C 756.26 413.82, 759.21 411.98, 764.77 408.30 C 770.33 404.61, 773.48 402.23, 778.92 398.02 C 784.37 393.82, 787.32 391.21, 791.99 387.29 C 796.67 383.37, 799.40 381.21, 802.29 378.43 C 805.18 375.65, 806.09 374.33, 806.44 373.38 C 806.78 372.44, 805.49 372.27, 804.02 373.69 C 802.56 375.12, 801.19 376.97, 799.11 380.52 C 797.03 384.08, 795.42 386.93, 793.62 391.47 C 791.83 396.01, 790.75 398.78, 790.14 403.22 C 789.53 407.65, 789.33 410.03, 790.56 413.65 C 791.80 417.27, 793.07 419.12, 796.32 421.31 C 799.56 423.50, 801.91 424.09, 806.80 424.61 C 811.68 425.12, 814.72 424.86, 820.74 423.89 C 826.76 422.91, 830.82 421.58, 836.90 419.73 C 842.99 417.88, 846.43 416.56, 851.18 414.64 C 855.92 412.72, 858.92 411.42, 860.65 410.13 C 862.38 408.84, 861.91 407.82, 859.81 408.19 C 857.71 408.56, 854.91 410.24, 850.15 411.97 C 845.40 413.70, 842.02 415.07, 836.04 416.84 C 830.06 418.60, 826.03 419.93, 820.25 420.80 C 814.48 421.68, 811.54 421.73, 807.17 421.21 C 802.80 420.69, 800.99 419.97, 798.40 418.22 C 795.80 416.48, 795.08 415.35, 794.21 412.47 C 793.34 409.60, 793.33 407.70, 794.05 403.85 C 794.77 400.00, 795.96 397.42, 797.83 393.23 C 799.69 389.03, 801.55 386.46, 803.39 382.87 C 805.23 379.29, 806.57 377.46, 807.02 375.30 C 807.47 373.13, 807.07 371.96, 805.65 372.06 C 804.23 372.16, 803.03 373.19, 799.93 375.81 C 796.83 378.42, 794.66 381.12, 790.14 385.15 C 785.62 389.18, 782.70 391.80, 777.33 395.96 C 771.95 400.13, 768.78 402.46, 763.26 405.98 C 757.74 409.49, 754.74 411.21, 749.72 413.53 C 744.71 415.85, 742.15 416.68, 738.19 417.58 C 734.22 418.48, 732.48 418.35, 729.90 418.02 C 727.33 417.68, 726.53 417.38, 725.30 415.91 C 724.08 414.44, 723.80 413.48, 723.77 410.69 C 723.74 407.90, 724.00 405.89, 725.15 401.98 C 726.30 398.07, 727.61 395.35, 729.53 391.15 C 731.45 386.94, 733.15 384.45, 734.75 380.95 C 736.35 377.44, 737.35 375.67, 737.53 373.61 C 737.71 371.54, 736.96 370.66, 735.63 370.62 C 734.30 370.57, 733.03 371.29, 730.89 373.37 C 728.76 375.45, 727.70 377.77, 724.95 381.01 C 722.21 384.25, 720.56 386.03, 717.15 389.58 C 713.73 393.12, 711.82 394.99, 707.87 398.75 C 703.92 402.50, 701.75 404.39, 697.39 408.34 C 693.03 412.28, 690.71 414.24, 686.08 418.48 C 681.46 422.73, 679.02 424.88, 674.25 429.56 C 669.48 434.24, 667.01 436.60, 662.23 441.89 C 657.45 447.18, 655.01 449.99, 650.36 456.02 C 645.71 462.06, 643.31 465.30, 638.96 472.05 C 634.61 478.80, 632.42 482.46, 628.61 489.78 C 624.80 497.10, 622.93 501.10, 619.91 508.65 C 616.90 516.20, 615.53 520.35, 613.56 527.52 C 611.59 534.70, 610.85 538.48, 610.05 544.53 C 609.24 550.57, 608.90 553.59, 609.53 557.73 C 610.16 561.87, 611.09 563.74, 613.19 565.23 C 615.29 566.72, 617.19 566.77, 620.02 565.18 C 622.85 563.58, 624.12 561.66, 627.34 557.25 C 630.55 552.83, 632.37 549.83, 636.10 543.10 C 639.83 536.37, 641.93 532.17, 645.98 523.59 C 650.02 515.01, 652.25 509.98, 656.33 500.19 C 660.40 490.40, 662.53 484.94, 666.35 474.65 C 670.17 464.37, 672.08 458.87, 675.42 448.75 C 678.76 438.64, 680.32 433.45, 683.04 424.09 C 685.76 414.74, 686.95 410.09, 689.02 401.98 C 691.09 393.86, 691.96 390.05, 693.39 383.53 C 694.83 377.02, 695.37 374.05, 696.21 369.41 C 697.04 364.76, 697.51 363.07, 697.56 360.31 C 697.60 357.56, 697.08 356.57, 696.43 355.62 C 695.78 354.66, 695.02 354.67, 694.30 355.54"
    />
  </g>
</svg>

